<svg width="95" height="113" fill="none" xmlns="http://www.w3.org/2000/svg"><path d="M88.23 15.39C77.83.51 57.29-3.9 42.44 5.56L16.36 22.18a29.9 29.9 0 0 0-13.52 20 31.53 31.53 0 0 0 3.1 20.24A29.94 29.94 0 0 0 1.47 73.6a31.86 31.86 0 0 0 5.45 24.12c10.4 14.88 30.94 19.29 45.79 9.83L78.79 91a30 30 0 0 0 13.52-20 31.52 31.52 0 0 0-3.11-20.23 30.128 30.128 0 0 0 4.48-11.18 31.9 31.9 0 0 0-5.45-24.12" fill="#FF3E00"/><path d="M39.89 99.16a20.73 20.73 0 0 1-22.24-8.25 19.14 19.14 0 0 1-3.27-14.5c.147-.817.355-1.623.62-2.41l.49-1.5 1.34 1A33.781 33.781 0 0 0 27 78.56l1 .29-.09 1A5.9 5.9 0 0 0 29 83.7a6.25 6.25 0 0 0 6.7 2.48 5.85 5.85 0 0 0 1.6-.7l26.04-16.62a5.418 5.418 0 0 0 2.45-3.64 5.77 5.77 0 0 0-1-4.37 6.25 6.25 0 0 0-6.7-2.48 5.72 5.72 0 0 0-1.6.7l-10 6.35a19.101 19.101 0 0 1-5.29 2.32A20.72 20.72 0 0 1 19 59.5 19.16 19.16 0 0 1 15.75 45a18 18 0 0 1 8.13-12.06L50 16.32A19.05 19.05 0 0 1 55.26 14a20.71 20.71 0 0 1 22.23 8.25 19.14 19.14 0 0 1 3.28 14.5 20.15 20.15 0 0 1-.62 2.43l-.5 1.5-1.33-1a33.78 33.78 0 0 0-10.2-5.1l-1-.29.09-1a5.86 5.86 0 0 0-1.06-3.88A6.23 6.23 0 0 0 59.49 27a5.72 5.72 0 0 0-1.6.7L31.8 44.29a5.45 5.45 0 0 0-2.45 3.63 5.84 5.84 0 0 0 1 4.38A6.25 6.25 0 0 0 37 54.78a6.002 6.002 0 0 0 1.6-.7l10-6.34a18.61 18.61 0 0 1 5.3-2.33 20.7 20.7 0 0 1 22.23 8.24 19.16 19.16 0 0 1 3.28 14.5 17.998 17.998 0 0 1-8.13 12.06L45.19 96.83a19.178 19.178 0 0 1-5.3 2.33" fill="#fff"/></svg>